<svg width="48" height="48" viewBox="0 0 48 48" fill="none" xmlns="http://www.w3.org/2000/svg">
<path d="M23.5 38C22.9477 38 22.5 37.5523 22.5 37V26.5C22.5 25.9477 22.0523 25.5 21.5 25.5H11C10.4477 25.5 10 25.0523 10 24.5V23.5C10 22.9477 10.4477 22.5 11 22.5H21.5C22.0523 22.5 22.5 22.0523 22.5 21.5V11C22.5 10.4477 22.9477 10 23.5 10H24.5C25.0523 10 25.5 10.4477 25.5 11V21.5C25.5 22.0523 25.9477 22.5 26.5 22.5H37C37.5523 22.5 38 22.9477 38 23.5V24.5C38 25.0523 37.5523 25.5 37 25.5H26.5C25.9477 25.5 25.5 25.9477 25.5 26.5V37C25.5 37.5523 25.0523 38 24.5 38H23.5Z" fill="#2B2C34"/>
</svg>
