<svg width="18" height="18" viewBox="0 0 18 18" fill="none" xmlns="http://www.w3.org/2000/svg">
<path d="M2.84615 16.3846C2.50629 16.7245 1.95525 16.7245 1.61538 16.3846V16.3846C1.27552 16.0447 1.27552 15.4937 1.61538 15.1538L7.06213 9.70711C7.45265 9.31658 7.45265 8.68342 7.06212 8.29289L1.61538 2.84615C1.27552 2.50629 1.27552 1.95525 1.61538 1.61538V1.61538C1.95525 1.27552 2.50629 1.27552 2.84615 1.61538L8.29289 7.06213C8.68342 7.45265 9.31658 7.45265 9.70711 7.06212L15.1538 1.61538C15.4937 1.27552 16.0447 1.27552 16.3846 1.61538V1.61538C16.7245 1.95525 16.7245 2.50629 16.3846 2.84615L10.9379 8.29289C10.5474 8.68342 10.5474 9.31658 10.9379 9.70711L16.3846 15.1538C16.7245 15.4937 16.7245 16.0447 16.3846 16.3846V16.3846C16.0447 16.7245 15.4937 16.7245 15.1538 16.3846L9.70711 10.9379C9.31658 10.5474 8.68342 10.5474 8.29289 10.9379L2.84615 16.3846Z" fill="#2CB67D" stroke="#2CB67D"/>
</svg>
