<svg width="48" height="48" viewBox="0 0 48 48" fill="none" xmlns="http://www.w3.org/2000/svg">
<path d="M7.29283 29.3929L7.08223 29.6035L7.02117 29.895L5.02374 39.4328C4.78113 40.4714 5.06374 41.428 5.81783 42.1821C6.5719 42.9362 7.52851 43.2188 8.56707 42.9762L18.1049 40.9788L18.3964 40.9177L18.607 40.7071L42.257 17.0571C43.0194 16.2947 43.3999 15.3368 43.3999 14.25C43.3999 13.1633 43.0194 12.2053 42.257 11.4429L36.557 5.7429C35.7947 4.98052 34.8367 4.60001 33.7499 4.60001C32.6632 4.60001 31.7052 4.98052 30.9428 5.7429L7.29283 29.3929ZM13.0642 30.7L33.7499 10.0142L37.9857 14.25L17.2999 34.9358L13.0642 30.7Z" fill="#2CB67D" stroke="#2B2C34" stroke-width="2"/>
</svg>
