<svg width="48" height="48" viewBox="0 0 48 48" fill="none" xmlns="http://www.w3.org/2000/svg">
<path d="M3 46V47H4H44H45V46V39.95V38.95H44H4H3V39.95V46ZM7.1 34.65V35.65H8.1H14.75H15.1642L15.4571 35.3571L34.1071 16.7071L34.8142 16L34.1071 15.2929L27.4571 8.64293L26.75 7.93582L26.0429 8.64293L7.39289 27.2929L7.1 27.5858V28V34.65ZM34.8929 14.5071L35.6 15.2142L36.3071 14.5071L40.5071 10.3071L40.5365 10.2777L40.5634 10.246C41.0548 9.6652 41.35 8.98492 41.35 8.22503C41.35 7.41011 40.9752 6.71098 40.4071 6.14293L36.5071 2.24293C35.9271 1.66294 35.2072 1.24557 34.3643 1.27567C33.5719 1.30397 32.9182 1.6907 32.4158 2.27003L28.2429 6.44293L27.5358 7.15003L28.2429 7.85714L34.8929 14.5071ZM27.6858 15.9L12.9358 30.65H12.1V29.8142L26.85 15.0642L27.6858 15.9Z" fill="#2B2C34" stroke="#2CB67D" stroke-width="2"/>
</svg>
