<svg width="48" height="48" viewBox="0 0 48 48" fill="none" xmlns="http://www.w3.org/2000/svg">
<path d="M23.3027 20.7878L23.1678 20.5H22.85H22H21.1849L21.5543 21.2266L22.9641 24L21.5543 26.7734L21.1849 27.5H22H22.85H23.1607L23.2983 27.2214L24 25.8009L24.7017 27.2214L24.8393 27.5H25.15H26H26.8211L26.4442 26.7705L25.0128 24L26.4442 21.2295L26.8211 20.5H26H25.15H24.8322L24.6973 20.7878L24 22.2752L23.3027 20.7878Z" fill="#2B2C34" stroke="#FFFFFE"/>
<path d="M7 18.5H6.5V19V21V21.5H7H10.5V22.5H9H8.5V23V25V25.5H9H10.5V26.5H7H6.5V27V29V29.5H7H11C11.663 29.5 12.2989 29.2366 12.7678 28.7678C13.2366 28.2989 13.5 27.663 13.5 27V25.5C13.5 24.9696 13.2893 24.4609 12.9142 24.0858C12.8846 24.0562 12.8541 24.0276 12.8229 24C12.8541 23.9724 12.8846 23.9438 12.9142 23.9142C13.2893 23.5391 13.5 23.0304 13.5 22.5V21C13.5 19.6122 12.3745 18.5 11 18.5H7Z" fill="#2B2C34" stroke="#FFFFFE"/>
<path d="M14 18.5H13.5V19V21V21.5H14H17.5V22.5H16C15.337 22.5 14.7011 22.7634 14.2322 23.2322C13.7634 23.7011 13.5 24.337 13.5 25V29V29.5H14H16H20H20.5V29V27V26.5H20H16.5V25.5H18C18.663 25.5 19.2989 25.2366 19.7678 24.7678C20.2366 24.2989 20.5 23.663 20.5 23V21C20.5 20.337 20.2366 19.7011 19.7678 19.2322C19.2989 18.7634 18.663 18.5 18 18.5H14Z" fill="#2B2C34" stroke="#FFFFFE"/>
<path d="M28 18.5H27.5V19V21V21.5H28H31.5V22.5H30H29.5V23V25V25.5H30H31.5V26.5H28H27.5V27V29V29.5H28H32C32.663 29.5 33.2989 29.2366 33.7678 28.7678C34.2366 28.2989 34.5 27.663 34.5 27V25.5C34.5 24.9696 34.2893 24.4609 33.9142 24.0858C33.8846 24.0562 33.8541 24.0276 33.8229 24C33.8541 23.9724 33.8846 23.9438 33.9142 23.9142C34.2893 23.5391 34.5 23.0304 34.5 22.5V21C34.5 19.6122 33.3745 18.5 32 18.5H28Z" fill="#2B2C34" stroke="#FFFFFE"/>
<path d="M35 18.5H34.5V19V21V21.5H35H38.5V22.5H37C36.337 22.5 35.7011 22.7634 35.2322 23.2322C34.7634 23.7011 34.5 24.337 34.5 25V29V29.5H35H37H41H41.5V29V27V26.5H41H37.5V25.5H39C39.663 25.5 40.2989 25.2366 40.7678 24.7678C41.2366 24.2989 41.5 23.663 41.5 23V21C41.5 20.337 41.2366 19.7011 40.7678 19.2322C40.2989 18.7634 39.663 18.5 39 18.5H35Z" fill="#2B2C34" stroke="#FFFFFE"/>
</svg>
