<svg width="48" height="48" viewBox="0 0 48 48" fill="none" xmlns="http://www.w3.org/2000/svg">
<path d="M6.53846 21.9H4.26923V19.7H9.30769H9.80769V19.2V16V15.5H9.30769H3.76923C2.87693 15.5 2.03866 15.9102 1.43301 16.6101C0.829319 17.3077 0.5 18.2402 0.5 19.2V28.8C0.5 29.7598 0.829319 30.6923 1.43301 31.3899C2.03866 32.0898 2.87693 32.5 3.76923 32.5H6.53846C7.43077 32.5 8.26904 32.0898 8.87469 31.3899C9.47837 30.6923 9.80769 29.7598 9.80769 28.8V25.6C9.80769 24.6402 9.47837 23.7077 8.87469 23.0101C8.26904 22.3102 7.43077 21.9 6.53846 21.9ZM4.26923 26.1H6.03846V28.3H4.26923V26.1Z" fill="#2B2C34" stroke="#FFFFFE"/>
<path d="M10.6923 15.5H10.1923V16V25.6V26.1H10.6923H15.7308V32V32.5H16.2308H19H19.5V32V16V15.5H19H16.2308H15.7308V16V21.9H13.9616V16V15.5H13.4616H10.6923Z" fill="#2B2C34" stroke="#FFFFFE"/>
<path d="M34.5385 21.9H32.2692V19.7H37.3077H37.8077V19.2V16V15.5H37.3077H31.7692C30.8769 15.5 30.0387 15.9102 29.433 16.6101C28.8293 17.3077 28.5 18.2402 28.5 19.2V28.8C28.5 29.7598 28.8293 30.6923 29.433 31.3899C30.0387 32.0898 30.8769 32.5 31.7692 32.5H34.5385C35.4308 32.5 36.269 32.0898 36.8747 31.3899C37.4784 30.6923 37.8077 29.7598 37.8077 28.8V25.6C37.8077 24.6402 37.4784 23.7077 36.8747 23.0101C36.269 22.3102 35.4308 21.9 34.5385 21.9ZM32.2692 26.1H34.0385V28.3H32.2692V26.1Z" fill="#2B2C34" stroke="#FFFFFE"/>
<path d="M38.6923 15.5H38.1923V16V25.6V26.1H38.6923H43.7308V32V32.5H44.2308H47H47.5V32V16V15.5H47H44.2308H43.7308V16V21.9H41.9616V16V15.5H41.4616H38.6923Z" fill="#2B2C34" stroke="#FFFFFE"/>
<path d="M23.3027 20.7878L23.1678 20.5H22.85H22H21.1849L21.5543 21.2266L22.9641 24L21.5543 26.7734L21.1849 27.5H22H22.85H23.1607L23.2983 27.2214L24 25.8009L24.7017 27.2214L24.8393 27.5H25.15H26H26.8211L26.4442 26.7705L25.0128 24L26.4442 21.2295L26.8211 20.5H26H25.15H24.8322L24.6973 20.7878L24 22.2752L23.3027 20.7878Z" fill="#2B2C34" stroke="#FFFFFE"/>
</svg>
