<svg width="24" height="24" viewBox="0 0 24 24" fill="none" xmlns="http://www.w3.org/2000/svg">
<path d="M12 19C11.5858 19 11.25 18.6642 11.25 18.25V13.75C11.25 13.1977 10.8023 12.75 10.25 12.75H5.75C5.33579 12.75 5 12.4142 5 12V12C5 11.5858 5.33579 11.25 5.75 11.25H10.25C10.8023 11.25 11.25 10.8023 11.25 10.25V5.75C11.25 5.33579 11.5858 5 12 5V5C12.4142 5 12.75 5.33579 12.75 5.75V10.25C12.75 10.8023 13.1977 11.25 13.75 11.25H18.25C18.6642 11.25 19 11.5858 19 12V12C19 12.4142 18.6642 12.75 18.25 12.75H13.75C13.1977 12.75 12.75 13.1977 12.75 13.75V18.25C12.75 18.6642 12.4142 19 12 19V19Z" fill="black"/>
</svg>
