<svg width="48" height="48" viewBox="0 0 48 48" fill="none" xmlns="http://www.w3.org/2000/svg">
<path d="M9 42C8.2 42 7.5 41.7 6.9 41.1C6.3 40.5 6 39.8 6 39V30.4H9V39H17.6V42H9ZM30.4 42V39H39V30.4H42V39C42 39.8 41.7 40.5 41.1 41.1C40.5 41.7 39.8 42 39 42H30.4ZM6 17.6V9C6 8.2 6.3 7.5 6.9 6.9C7.5 6.3 8.2 6 9 6H17.6V9H9V17.6H6ZM39 17.6V9H30.4V6H39C39.8 6 40.5 6.3 41.1 6.9C41.7 7.5 42 8.2 42 9V17.6H39ZM24 34C21.5667 34 19.4417 33.2417 17.625 31.725C15.8083 30.2083 14.6667 28.3 14.2 26H17.3C17.7333 27.4667 18.5583 28.6667 19.775 29.6C20.9917 30.5333 22.4 31 24 31C25.9333 31 27.5833 30.3167 28.95 28.95C30.3167 27.5833 31 25.9333 31 24C31 22.0667 30.3167 20.4167 28.95 19.05C27.5833 17.6833 25.9333 17 24 17C23.0333 17 22.1333 17.175 21.3 17.525C20.4667 17.875 19.7333 18.3667 19.1 19H22V22H14V14H17V16.85C17.9 15.9833 18.95 15.2917 20.15 14.775C21.35 14.2583 22.6333 14 24 14C26.7667 14 29.125 14.975 31.075 16.925C33.025 18.875 34 21.2333 34 24C34 26.7667 33.025 29.125 31.075 31.075C29.125 33.025 26.7667 34 24 34Z" fill="#2B2C34"/>
</svg>
