<svg width="48" height="48" viewBox="0 0 48 48" fill="none" xmlns="http://www.w3.org/2000/svg">
<path d="M16.6929 41.8071L16.6975 41.8117C17.0862 42.1954 17.528 42.4964 18.0226 42.6998C18.5066 42.8989 19.013 43 19.535 43C20.057 43 20.5627 42.8989 21.0446 42.6981C21.5354 42.4936 21.9729 42.1913 22.3571 41.8071L34.8508 29.3134C35.2549 28.9228 35.5691 28.4721 35.7686 27.9601C35.9556 27.4801 36.05 26.9797 36.05 26.465C36.05 25.9503 35.9556 25.4507 35.767 24.9728C35.5668 24.4656 35.2522 24.0202 34.8491 23.6348L14.558 3.29376L13.8509 2.58492L13.1429 3.29289L10.9929 5.44289L10.2858 6.15L10.9929 6.85711L15.9858 11.85L4.19289 23.6429C3.8087 24.0271 3.50642 24.4646 3.30192 24.9554C3.10114 25.4373 3 25.943 3 26.465C3 26.987 3.1011 27.4934 3.30017 27.9774C3.50358 28.472 3.80463 28.9138 4.1883 29.3025L4.18829 29.3025L4.19289 29.3071L16.6929 41.8071ZM40.7916 29.8889L40 28.8635L39.2084 29.8889L37.0137 32.7322C36.4269 33.4668 35.9487 34.2649 35.5807 35.1245C35.1923 36.0318 35 36.9934 35 38C35 39.3783 35.4856 40.5819 36.4503 41.5476C37.4134 42.5118 38.6112 43 39.9828 43C41.3541 43 42.5547 42.5122 43.5273 41.5528C44.5051 40.5882 45 39.3831 45 38C45 36.9865 44.7966 36.019 44.3871 35.108C44.0076 34.2637 43.5453 33.4771 43 32.75L43.0001 32.7499L42.9916 32.7389L40.7916 29.8889ZM29.6358 25.5H9.46421L19.55 15.4142L29.6358 25.5Z" fill="#2B2C34" stroke="#FFFFFE" stroke-width="2"/>
</svg>
