<svg width="48" height="48" viewBox="0 0 48 48" fill="none" xmlns="http://www.w3.org/2000/svg">
<path d="M17.4 41.1L4.9 28.6C4.6 28.2961 4.375 27.9618 4.225 27.5971C4.075 27.2324 4 26.855 4 26.465C4 26.075 4.075 25.7 4.225 25.34C4.375 24.98 4.6 24.65 4.9 24.35L17.4 11.85L11.7 6.15L13.85 4L34.15 24.35C34.4658 24.65 34.6948 24.98 34.8369 25.34C34.979 25.7 35.05 26.075 35.05 26.465C35.05 26.855 34.979 27.2324 34.8369 27.5971C34.6948 27.9618 34.4658 28.2961 34.15 28.6L21.65 41.1C21.35 41.4 21.02 41.625 20.66 41.775C20.3 41.925 19.925 42 19.535 42C19.145 42 18.7676 41.925 18.4029 41.775C18.0382 41.625 17.7039 41.4 17.4 41.1ZM19.55 14L7.05 26.5H32.05L19.55 14ZM39.9828 42C38.8713 42 37.9296 41.6136 37.1578 40.8409C36.3859 40.0682 36 39.1212 36 38C36 37.124 36.1667 36.2967 36.5 35.518C36.8333 34.7393 37.2667 34.0167 37.8 33.35L40 30.5L42.2 33.35C42.7 34.0167 43.125 34.7393 43.475 35.518C43.825 36.2967 44 37.124 44 38C44 39.1212 43.6083 40.0682 42.825 40.8409C42.0417 41.6136 41.0943 42 39.9828 42Z" fill="#FFFFFE"/>
</svg>
