<svg width="16" height="16" viewBox="0 0 16 16" fill="none" xmlns="http://www.w3.org/2000/svg">
<g clip-path="url(#clip0_119_8)">
<mask id="mask0_119_8" style="mask-type:luminance" maskUnits="userSpaceOnUse" x="0" y="0" width="16" height="16">
<path d="M0 0H16V16H0V0Z" fill="white"/>
</mask>
<g mask="url(#mask0_119_8)">
<path d="M12.6667 9.66667C12.6667 9.66667 11.3333 11.1133 11.3333 12C11.3333 12.3536 11.4738 12.6928 11.7238 12.9428C11.9739 13.1929 12.313 13.3333 12.6667 13.3333C13.0203 13.3333 13.3594 13.1929 13.6095 12.9428C13.8595 12.6928 14 12.3536 14 12C14 11.1133 12.6667 9.66667 12.6667 9.66667ZM3.47329 8.66667L6.66663 5.47333L9.85996 8.66667M11.04 7.96L5.07996 2L4.13996 2.94L5.72663 4.52667L2.29329 7.96C1.89996 8.33333 1.89996 8.98 2.29329 9.37333L5.95996 13.04C6.15329 13.2333 6.41329 13.3333 6.66663 13.3333C6.91996 13.3333 7.17996 13.2333 7.37329 13.04L11.04 9.37333C11.4333 8.98 11.4333 8.33333 11.04 7.96Z" fill="black"/>
<mask id="mask1_119_8" style="mask-type:luminance" maskUnits="userSpaceOnUse" x="0" y="0" width="16" height="15">
<path d="M0.998291 0H15.9983V15H0.998291V0Z" fill="white"/>
<path d="M12.6667 9.66667C12.6667 9.66667 11.3333 11.1133 11.3333 12C11.3333 12.3536 11.4738 12.6928 11.7238 12.9428C11.9739 13.1929 12.313 13.3333 12.6667 13.3333C13.0203 13.3333 13.3594 13.1929 13.6095 12.9428C13.8595 12.6928 14 12.3536 14 12C14 11.1133 12.6667 9.66667 12.6667 9.66667ZM3.47329 8.66667L6.66663 5.47333L9.85996 8.66667M11.04 7.96L5.07996 2L4.13996 2.94L5.72663 4.52667L2.29329 7.96C1.89996 8.33333 1.89996 8.98 2.29329 9.37333L5.95996 13.04C6.15329 13.2333 6.41329 13.3333 6.66663 13.3333C6.91996 13.3333 7.17996 13.2333 7.37329 13.04L11.04 9.37333C11.4333 8.98 11.4333 8.33333 11.04 7.96Z" fill="black"/>
</mask>
<g mask="url(#mask1_119_8)">
<path d="M12.6667 9.6667L13.402 8.98898L12.6667 8.19115L11.9313 8.98898L12.6667 9.6667ZM6.66663 5.47336L7.37373 4.76626L6.66663 4.05915L5.95952 4.76626L6.66663 5.47336ZM11.04 7.96003L10.3329 8.66714L10.3421 8.67636L10.3516 8.68534L11.04 7.96003ZM5.07996 2.00003L5.78707 1.29292L5.07996 0.585815L4.37285 1.29292L5.07996 2.00003ZM4.13996 2.94003L3.43285 2.23292L2.72574 2.94003L3.43285 3.64714L4.13996 2.94003ZM5.72663 4.5267L6.43373 5.2338L7.14084 4.5267L6.43373 3.81959L5.72663 4.5267ZM2.29329 7.96003L2.98172 8.68534L2.99118 8.67636L3.0004 8.66714L2.29329 7.96003ZM12.6667 9.6667C11.9313 8.98898 11.9314 8.98885 11.9313 8.98898C11.9314 8.98888 11.9313 8.98902 11.9313 8.98898C11.9311 8.98917 11.9305 8.98989 11.9303 8.99013C11.9298 8.9906 11.9293 8.99116 11.9287 8.99181C11.9275 8.99311 11.926 8.99477 11.9242 8.99677C11.9205 9.00077 11.9156 9.00616 11.9096 9.01288C11.8974 9.02631 11.8806 9.04508 11.8598 9.06869C11.8181 9.11585 11.7601 9.18266 11.6912 9.26509C11.5542 9.42887 11.3696 9.65966 11.1829 9.92441C10.9984 10.1859 10.798 10.4999 10.6402 10.8285C10.4914 11.1383 10.3333 11.5561 10.3333 12H12.3333C12.3333 12.0006 12.3419 11.905 12.4431 11.6943C12.5353 11.5022 12.6683 11.2883 12.8171 11.0773C12.9637 10.8696 13.1124 10.6833 13.2254 10.5481C13.2815 10.481 13.3277 10.4279 13.359 10.3925C13.3746 10.3748 13.3864 10.3616 13.3938 10.3534C13.3975 10.3493 13.4001 10.3465 13.4015 10.345C13.4022 10.3442 13.4026 10.3438 13.4026 10.3437C13.4028 10.3436 13.4027 10.3436 13.4026 10.3437C13.4025 10.3438 13.402 10.3444 12.6667 9.6667ZM10.3333 12C10.3333 12.6188 10.5792 13.2123 11.0167 13.6499L12.431 12.2357C12.3684 12.1732 12.3333 12.0884 12.3333 12H10.3333ZM11.0167 13.6499C11.4543 14.0875 12.0478 14.3333 12.6667 14.3333V12.3333C12.5783 12.3333 12.4935 12.2982 12.431 12.2357L11.0167 13.6499ZM12.6667 14.3333C13.2855 14.3333 13.879 14.0875 14.3166 13.6499L12.9024 12.2357C12.8398 12.2982 12.7551 12.3333 12.6667 12.3333V14.3333ZM14.3166 13.6499C14.7542 13.2123 15 12.6188 15 12H13C13 12.0884 12.9649 12.1732 12.9024 12.2357L14.3166 13.6499ZM15 12C15 11.5561 14.8419 11.1383 14.6931 10.8285C14.5353 10.4999 14.3349 10.1859 14.1504 9.92441C13.9637 9.65966 13.7791 9.42887 13.6421 9.26509C13.5732 9.18266 13.5152 9.11585 13.4735 9.06869C13.4527 9.04509 13.4359 9.02631 13.4237 9.01288C13.4177 9.00616 13.4128 9.00077 13.4091 8.99677C13.4073 8.99477 13.4058 8.99311 13.4046 8.99181C13.404 8.99116 13.4035 8.9906 13.403 8.99013C13.4028 8.98989 13.4022 8.98917 13.402 8.98898C13.402 8.98902 13.402 8.98888 13.402 8.98898C13.4019 8.98885 13.402 8.98898 12.6667 9.6667C11.9313 10.3444 11.9312 10.3443 11.9311 10.3442C11.9311 10.3443 11.9311 10.3442 11.9311 10.3442C11.9312 10.3443 11.9311 10.3442 11.9318 10.345C11.9332 10.3465 11.9358 10.3493 11.9395 10.3534C11.9469 10.3616 11.9587 10.3748 11.9744 10.3925C12.0056 10.4279 12.0518 10.481 12.1079 10.5481C12.2209 10.6833 12.3696 10.8696 12.5162 11.0773C12.665 11.2883 12.798 11.5022 12.8902 11.6943C12.9914 11.905 13 12.0006 13 12H15ZM4.1804 9.3738L7.37373 6.18047L5.95952 4.76626L2.76618 7.95959L4.1804 9.3738ZM5.95952 6.18047L9.15285 9.3738L10.5671 7.95959L7.37373 4.76626L5.95952 6.18047ZM11.7471 7.25292L5.78707 1.29292L4.37285 2.70713L10.3329 8.66714L11.7471 7.25292ZM4.37285 1.29292L3.43285 2.23292L4.84706 3.64714L5.78706 2.70713L4.37285 1.29292ZM3.43285 3.64714L5.01952 5.2338L6.43373 3.81959L4.84706 2.23292L3.43285 3.64714ZM5.01952 3.81959L1.58618 7.25292L3.0004 8.66714L6.43373 5.2338L5.01952 3.81959ZM1.60487 7.23472C0.785596 8.01234 0.812839 9.30712 1.58618 10.0805L3.0004 8.66714C2.99964 8.66638 2.99957 8.66534 2.99931 8.66469C2.99876 8.66333 2.99829 8.66118 2.99829 8.6592C2.99829 8.6572 2.99873 8.65892 2.99657 8.66417C2.99543 8.66693 2.99362 8.6705 2.99092 8.67447C2.98817 8.6785 2.98499 8.68223 2.98172 8.68534L1.60487 7.23472ZM1.58618 10.0805L5.25285 13.7471L6.66706 12.3329L3.0004 8.66714L1.58618 10.0805ZM5.25285 13.7471C5.64006 14.1343 6.15718 14.3333 6.66663 14.3333L6.66706 12.3329L5.25285 13.7471ZM6.66663 14.3333C7.17607 14.3333 7.69319 14.1343 8.0804 13.7471L6.66706 12.3329L6.66663 14.3333ZM8.0804 13.7471L11.7471 10.0805L10.3329 8.66714L6.66706 12.3329L8.0804 13.7471ZM11.7471 10.0805C12.5204 9.30712 12.5477 8.01234 11.7284 7.23472L10.3516 8.68534C10.3483 8.68223 10.3451 8.6785 10.3424 8.67447C10.3397 8.6705 10.3379 8.66693 10.3367 8.66417C10.3345 8.65892 10.335 8.6572 10.335 8.6592C10.335 8.66118 10.3345 8.66333 10.334 8.66469C10.3337 8.66534 10.3336 8.66638 10.3329 8.66714L11.7471 10.0805Z" fill="white"/>
</g>
</g>
</g>
<defs>
<clipPath id="clip0_119_8">
<rect width="16" height="16" fill="white"/>
</clipPath>
</defs>
</svg>
