<svg width="24" height="24" viewBox="0 0 24 24" fill="none" xmlns="http://www.w3.org/2000/svg">
<path d="M5.375 22V18.625H2V17.125H5.375V12.75H2V11.25H5.375V6.875H2V5.375H5.375V2H6.875V5.375H11.25V2H12.75V5.375H17.125V2H18.625V5.375H22V6.875H18.625V11.25H22V12.75H18.625V17.125H22V18.625H18.625V22H17.125V18.625H12.75V22H11.25V18.625H6.875V22H5.375ZM6.875 17.125H11.25V12.75H6.875V17.125ZM12.75 17.125H17.125V12.75H12.75V17.125ZM6.875 11.25H11.25V6.875H6.875V11.25ZM12.75 11.25H17.125V6.875H12.75V11.25Z" fill="black"/>
</svg>
