<svg width="48" height="48" viewBox="0 0 48 48" fill="none" xmlns="http://www.w3.org/2000/svg">
<path d="M7.29289 29.3929L7.08229 29.6035L7.02123 29.895L5.0238 39.4327C4.78119 40.4713 5.0638 41.428 5.81789 42.1821C6.57197 42.9362 7.52857 43.2188 8.56713 42.9762L18.105 40.9787L18.3965 40.9177L18.6071 40.7071L42.2571 17.0571C43.0195 16.2947 43.4 15.3367 43.4 14.25C43.4 13.1632 43.0195 12.2053 42.2571 11.4429L36.5571 5.74287C35.7947 4.98049 34.8368 4.59998 33.75 4.59998C32.6632 4.59998 31.7053 4.98049 30.9429 5.74287L7.29289 29.3929ZM13.0642 30.7L33.75 10.0142L37.9858 14.25L17.3 34.9358L13.0642 30.7Z" fill="#2B2C34" stroke="#FFFFFE" stroke-width="2"/>
</svg>
