<svg width="48" height="48" viewBox="0 0 48 48" fill="none" xmlns="http://www.w3.org/2000/svg">
<path d="M8.34994 42C7.64994 42.1666 7.04161 41.9916 6.52494 41.475C6.00827 40.9583 5.83327 40.35 5.99994 39.65L7.99994 30.1L17.8999 40L8.34994 42ZM17.8999 40L7.99994 30.1L31.6499 6.44998C32.2166 5.88331 32.9166 5.59998 33.7499 5.59998C34.5833 5.59998 35.2833 5.88331 35.8499 6.44998L41.5499 12.15C42.1166 12.7166 42.3999 13.4166 42.3999 14.25C42.3999 15.0833 42.1166 15.7833 41.5499 16.35L17.8999 40ZM33.7499 8.59998L11.6499 30.7L17.2999 36.35L39.3999 14.25L33.7499 8.59998Z" fill="#FFFFFE"/>
</svg>
