<svg fill="none" height="16" viewBox="0 0 16 16" width="16" xmlns="http://www.w3.org/2000/svg" xmlns:xlink="http://www.w3.org/1999/xlink"><mask id="a" fill="#000" height="15" maskUnits="userSpaceOnUse" width="15" x="1" y=".998333"><path d="m1 .998333h15v15h-15z" fill="#fff"/><path d="m13.8067 4.69333c.26-.26.26-.69333 0-.94l-1.56-1.56c-.2467-.26-.68-.26-.94 0l-1.2267 1.22 2.5 2.5m-10.58 5.58667v2.5h2.5l7.3733-7.38-2.49997-2.5z" fill="#000"/></mask><path d="m13.8067 4.69333c.26-.26.26-.69333 0-.94l-1.56-1.56c-.2467-.26-.68-.26-.94 0l-1.2267 1.22 2.5 2.5m-10.58 5.58667v2.5h2.5l7.3733-7.38-2.49997-2.5z" fill="#000"/><path d="m13.8067 3.75333-.7071.70711.0093.0093.0095.00906zm-1.56-1.56-.7255.68826.0091.00955.0093.0093zm-.94 0 .7051.70904.002-.00193zm-1.2267 1.22-.70518-.70903-.71096.7071.70903.70904zm-8.08 8.08667-.70743-.7068-.29257.2929v.4139zm0 2.5h-1v1h1zm2.5 0v1h.41448l.29295-.2932zm7.3733-7.38.7075.70679.7064-.70711-.7068-.70679zm-2.49997-2.5.70707-.70711-.70739-.70742-.7071.70774zm5.14047 1.28044c.6399-.63992.6674-1.72151-.0189-2.37257l-1.3765 1.45093c-.0868-.08235-.1167-.18329-.1167-.26047 0-.07701.0289-.16319.0979-.2321zm0-2.35421-1.56-1.56-1.4142 1.41421 1.56 1.56zm-1.5417-1.54116c-.651-.686254-1.7326-.658765-2.3725-.01884l1.4142 1.41421c-.0689.06892-.1551.09789-.2321.09789-.0772 0-.1781-.02993-.2605-.11674zm-2.3706-.02077-1.22668 1.22 1.41038 1.41806 1.2266-1.22zm-1.22861 2.63614 2.50001 2.5 1.4142-1.41421-2.5-2.5zm-8.37289 7.37956v2.5h2v-2.5zm1 3.5h2.5v-2h-2.5zm3.20743-.2932 7.37337-7.38001-1.4149-1.41358-7.37333 7.37999zm7.37297-8.79391-2.5-2.5-1.41417 1.41422 2.49997 2.5zm-3.91449-2.49968-7.37334 7.37999 1.41486 1.4136 7.37337-7.38001z" fill="#fff" mask="url(#a)"/></svg>